<?xml version="1.0" standalone="no"?>
<!DOCTYPE svg PUBLIC "-//W3C//DTD SVG 20010904//EN"
 "http://www.w3.org/TR/2001/REC-SVG-20010904/DTD/svg10.dtd">
<svg version="1.0" xmlns="http://www.w3.org/2000/svg"
 width="100.000000pt" height="100.000000pt" viewBox="0 0 100.000000 100.000000"
 preserveAspectRatio="xMidYMid meet">
<metadata>
Created by potrace 1.11, written by Peter Selinger 2001-2013
</metadata>
<g transform="translate(0.000000,100.000000) scale(0.100000,-0.100000)"
fill="#000000" stroke="none">
<path d="M769 846 c-2 -2 -24 -7 -49 -11 -24 -4 -48 -8 -51 -11 -4 -2 -24 -6
-45 -9 -66 -10 -72 -14 -100 -72 l-27 -55 -24 46 c-26 52 -13 51 -176 12 l-88
-21 85 -127 86 -127 -81 -156 c-45 -86 -79 -158 -76 -161 4 -4 67 9 152 30 6
2 27 6 47 10 29 6 39 15 48 39 7 18 15 41 19 51 6 17 10 14 31 -20 13 -21 24
-40 25 -42 1 -1 53 9 115 23 62 14 115 25 116 25 2 0 -32 57 -76 126 l-80 126
85 164 c47 90 82 164 77 164 -5 0 -11 -2 -13 -4z"/>
</g>
</svg>
